<?xml version="1.0" encoding="utf-8"?>
<!-- Generator: Adobe Illustrator 25.0.0, SVG Export Plug-In . SVG Version: 6.00 Build 0)  -->
<svg version="1.1" id="Layer_1" xmlns="http://www.w3.org/2000/svg" xmlns:xlink="http://www.w3.org/1999/xlink" x="0px" y="0px"
	 viewBox="0 0 68.8 62.4" style="enable-background:new 0 0 68.8 62.4;" xml:space="preserve">
<style type="text/css">
	.st0{fill:#377ecf;}
</style>
<g id="Layer_2_1_">
	<g id="Name_and_logo">
		<path class="st0" d="M13.4,32.3v18.3c-2-1.3-4-2.3-5.7-3.6c-1.3-1.1-2-2.8-1.8-4.5c0-4.4,0-8.9,0-13.3c0.1-0.9-0.4-1.8-1.3-2.2
			c-0.5-0.3-1-0.5-1.5-0.9c-1.9-1-3.1-2.9-3.1-5.1c0-1.7,0-3.3,0-5.4L5.8,19V0.1C6.5,0.5,7,0.7,7.5,1c5.6,3.2,11.1,6.4,16.7,9.6
			c3.9,2.2,7.6,4.6,9.8,8.1c1.9-1.7,3.6-3.7,5.7-5c7.5-4.6,15.2-9,23.1-13.7v19.1l6.1-3.4c-0.2,2.7-0.1,5-0.5,7.3
			c-0.4,1.6-1.6,2.9-3.1,3.5c-2,0.8-2.5,2.1-2.4,4.2c0.2,3.9,0,7.7,0.1,11.6c0.2,2.6-1.2,5-3.5,6.1c-1.3,0.7-2.5,1.4-4,2.3V32.1
			L52,34c-4.2,2.4-8.4,4.9-12.6,7.2c-0.9,0.4-1.4,1.4-1.3,2.3c0.1,4.4,0,8.9,0,13.3c0.1,2.2-1.1,4.3-3,5.3c-0.5,0.2-1,0.2-1.5,0
			c-1.9-1-3.1-3.1-3-5.3c0-4.6,0-9.2,0-13.8c0-0.6-0.3-1.1-0.7-1.5C24.7,38.6,13.7,32.3,13.4,32.3z M30.7,33.3
			c0.1-4.9-1-9.3-4.7-12.3s-8.1-5.3-12.6-8.1c0,3.3,0.1,6.1,0,8.8c-0.2,1.1,0.4,2.2,1.5,2.7c4.9,2.7,9.7,5.5,14.5,8.3
			C29.7,32.8,30.1,33,30.7,33.3L30.7,33.3z M55.3,13.1c-3.8,2.2-7.3,4.2-10.7,6.3c-3.1,2-5.2,5.1-6,8.6c-0.4,1.6-0.5,3.4-0.7,5.4
			c5.9-3.4,11.4-6.5,16.7-9.6c0.4-0.3,0.6-0.6,0.7-1.1C55.3,19.6,55.3,16.5,55.3,13.1z"/>
	</g>
</g>
</svg>
